<svg width="2055" height="573" viewBox="0 0 2055 573" fill="none" xmlns="http://www.w3.org/2000/svg">
<path d="M729.3 520C712.767 520 696.367 518.4 680.1 515.2C664.1 512.267 650.9 508.267 640.5 503.2V459.6C653.833 466 667.833 470.8 682.5 474C697.167 477.2 711.567 478.8 725.7 478.8C743.567 478.8 757.167 475.467 766.5 468.8C775.833 462.133 780.5 452.933 780.5 441.2C780.5 432.933 778.367 426.133 774.1 420.8C769.833 415.2 763.567 410.4 755.3 406.4C747.033 402.133 734.367 396.667 717.3 390C691.167 379.333 672.233 367.467 660.5 354.4C648.767 341.333 642.9 325.067 642.9 305.6C642.9 290.4 647.033 276.933 655.3 265.2C663.567 253.467 675.167 244.4 690.1 238C705.033 231.6 722.233 228.4 741.7 228.4C757.7 228.4 771.833 229.733 784.1 232.4C796.633 234.8 808.9 238.667 820.9 244V286.4C797.7 275.2 774.233 269.6 750.5 269.6C733.433 269.6 720.233 272.8 710.9 279.2C701.567 285.333 696.9 294.133 696.9 305.6C696.9 313.867 699.033 320.667 703.3 326C707.567 331.067 713.167 335.467 720.1 339.2C727.3 342.667 740.1 348.267 758.5 356C777.167 363.733 791.833 371.333 802.5 378.8C813.433 386.267 821.567 395.067 826.9 405.2C832.5 415.067 835.3 427.2 835.3 441.6C835.3 466.4 826.367 485.733 808.5 499.6C790.633 513.2 764.233 520 729.3 520ZM887.453 234.4H938.253V514H887.453V234.4Z" fill="#081F5C"/>
<path d="M998.281 234.4H1049.08V361.2L1163.88 234.4H1224.68L1100.68 371.2L1232.68 514H1171.88L1049.08 381.2V514H998.281V234.4ZM1390.92 520C1362.92 520 1337.58 514 1314.92 502C1292.52 489.733 1274.78 472.533 1261.72 450.4C1248.92 428.267 1242.52 402.933 1242.52 374.4C1242.52 345.867 1248.92 320.533 1261.72 298.4C1274.78 276.267 1292.52 259.067 1314.92 246.8C1337.58 234.533 1362.92 228.4 1390.92 228.4C1418.65 228.4 1443.72 234.533 1466.12 246.8C1488.78 259.067 1506.52 276.267 1519.32 298.4C1532.38 320.533 1538.92 345.867 1538.92 374.4C1538.92 402.933 1532.38 428.267 1519.32 450.4C1506.52 472.267 1488.78 489.333 1466.12 501.6C1443.72 513.867 1418.65 520 1390.92 520ZM1390.92 474C1408.78 474 1425.05 470 1439.72 462C1454.38 453.733 1465.98 442.133 1474.52 427.2C1483.32 412 1487.72 394.4 1487.72 374.4C1487.72 354.667 1483.45 337.333 1474.92 322.4C1466.38 307.2 1454.78 295.467 1440.12 287.2C1425.45 278.933 1409.05 274.8 1390.92 274.8C1372.78 274.8 1356.25 278.933 1341.32 287.2C1326.65 295.467 1315.05 307.2 1306.52 322.4C1297.98 337.333 1293.72 354.667 1293.72 374.4C1293.72 394.4 1297.98 412 1306.52 427.2C1315.32 442.133 1327.05 453.733 1341.72 462C1356.65 470 1373.05 474 1390.92 474ZM1661.68 520C1645.14 520 1628.74 518.4 1612.48 515.2C1596.48 512.267 1583.28 508.267 1572.88 503.2V459.6C1586.21 466 1600.21 470.8 1614.88 474C1629.54 477.2 1643.94 478.8 1658.08 478.8C1675.94 478.8 1689.54 475.467 1698.88 468.8C1708.21 462.133 1712.88 452.933 1712.88 441.2C1712.88 432.933 1710.74 426.133 1706.48 420.8C1702.21 415.2 1695.94 410.4 1687.68 406.4C1679.41 402.133 1666.74 396.667 1649.68 390C1623.54 379.333 1604.61 367.467 1592.88 354.4C1581.14 341.333 1575.28 325.067 1575.28 305.6C1575.28 290.4 1579.41 276.933 1587.68 265.2C1595.94 253.467 1607.54 244.4 1622.48 238C1637.41 231.6 1654.61 228.4 1674.08 228.4C1690.08 228.4 1704.21 229.733 1716.48 232.4C1729.01 234.8 1741.28 238.667 1753.28 244V286.4C1730.08 275.2 1706.61 269.6 1682.88 269.6C1665.81 269.6 1652.61 272.8 1643.28 279.2C1633.94 285.333 1629.28 294.133 1629.28 305.6C1629.28 313.867 1631.41 320.667 1635.68 326C1639.94 331.067 1645.54 335.467 1652.48 339.2C1659.68 342.667 1672.48 348.267 1690.88 356C1709.54 363.733 1724.21 371.333 1734.88 378.8C1745.81 386.267 1753.94 395.067 1759.28 405.2C1764.88 415.067 1767.68 427.2 1767.68 441.6C1767.68 466.4 1758.74 485.733 1740.88 499.6C1723.01 513.2 1696.61 520 1661.68 520ZM1878.07 276.4H1793.67V234.4H2013.27V276.4H1928.87V514H1878.07V276.4Z" fill="#BAD6EB"/>
<path d="M51.0719 408.487L12.0607 374.982C7.5214 371.084 0.5 374.309 0.5 380.293V565C0.5 568.866 3.634 572 7.49999 572H246.131C249.997 572 253.131 568.866 253.131 565V429.442C253.131 427.449 252.281 425.55 250.795 424.222L78.5676 270.345C75.7014 267.784 75.4362 263.391 77.9734 260.504L236.036 80.6428C238.608 77.717 243.073 77.4528 245.971 80.0549L442.473 256.478C443.758 257.631 445.423 258.269 447.15 258.269H503.549C509.928 258.269 512.983 250.435 508.288 246.117L245.959 4.83136C243.075 2.17833 238.575 2.41001 235.978 5.34519L5.12998 266.28C2.57158 269.172 2.83787 273.589 5.72515 276.153L198.596 447.399C200.092 448.727 200.948 450.633 200.948 452.634V512.022C200.948 515.888 197.814 519.022 193.948 519.022H60.5111C56.6451 519.022 53.5111 515.888 53.5111 512.022V413.797C53.5111 411.756 52.6203 409.817 51.0719 408.487Z" fill="#081F5C" stroke="black"/>
<path d="M205.308 328.154L175.324 302.494C172.387 299.98 172.044 295.561 174.558 292.624L243.344 212.254C245.882 209.29 250.353 208.972 253.284 211.548L439.625 375.336C441.137 376.665 442.003 378.581 442.003 380.594V565C442.003 568.866 438.869 572 435.003 572H395.931C392.065 572 388.931 568.866 388.931 565V406.252C388.931 404.244 388.068 402.333 386.563 401.004L258.275 287.755C255.34 285.164 250.85 285.484 248.312 288.465L215.189 327.373C212.678 330.322 208.25 330.672 205.308 328.154Z" fill="#BAD6EB"/>
</svg>
